<mxfile host="app.diagrams.net" modified="2023-09-27T20:43:59.351Z" agent="Mozilla/5.0 (X11; Linux x86_64; rv:109.0) Gecko/20100101 Firefox/117.0" etag="tnh19lYDk9ijXwHNtNIf" version="21.8.2" type="device">
  <diagram name="Page-1" id="lD_Rw_9kjYGrWwU5uTNK">
    <mxGraphModel dx="1430" dy="746" grid="1" gridSize="10" guides="1" tooltips="1" connect="1" arrows="1" fold="1" page="1" pageScale="1" pageWidth="850" pageHeight="1100" math="0" shadow="0">
      <root>
        <mxCell id="0" />
        <mxCell id="1" parent="0" />
        <mxCell id="hXrwtRvcpEDOgqO_QYrS-4" value="" style="whiteSpace=wrap;html=1;" vertex="1" parent="1">
          <mxGeometry x="377.5" y="320" width="112.5" height="100" as="geometry" />
        </mxCell>
        <mxCell id="hXrwtRvcpEDOgqO_QYrS-2" value="" style="html=1;verticalLabelPosition=bottom;align=center;labelBackgroundColor=#ffffff;verticalAlign=top;strokeWidth=2;strokeColor=#0080F0;shadow=0;dashed=0;shape=mxgraph.ios7.icons.tools;pointerEvents=1" vertex="1" parent="1">
          <mxGeometry x="410" y="370" width="50" height="40" as="geometry" />
        </mxCell>
        <mxCell id="hXrwtRvcpEDOgqO_QYrS-3" value="testbedimage" style="text;strokeColor=none;align=center;fillColor=none;html=1;verticalAlign=middle;whiteSpace=wrap;rounded=0;fontStyle=1" vertex="1" parent="1">
          <mxGeometry x="405" y="330" width="60" height="30" as="geometry" />
        </mxCell>
        <mxCell id="hXrwtRvcpEDOgqO_QYrS-5" value="" style="image;aspect=fixed;perimeter=ellipsePerimeter;html=1;align=center;shadow=0;dashed=0;spacingTop=3;image=img/lib/active_directory/web_server.svg;" vertex="1" parent="1">
          <mxGeometry x="120" y="80" width="80" height="100" as="geometry" />
        </mxCell>
        <mxCell id="hXrwtRvcpEDOgqO_QYrS-19" style="rounded=0;orthogonalLoop=1;jettySize=auto;html=1;exitX=0.75;exitY=1;exitDx=0;exitDy=0;entryX=0;entryY=0;entryDx=0;entryDy=0;strokeWidth=2;" edge="1" parent="1" source="hXrwtRvcpEDOgqO_QYrS-6" target="hXrwtRvcpEDOgqO_QYrS-4">
          <mxGeometry relative="1" as="geometry" />
        </mxCell>
        <mxCell id="hXrwtRvcpEDOgqO_QYrS-6" value="web" style="text;strokeColor=none;align=center;fillColor=none;html=1;verticalAlign=middle;whiteSpace=wrap;rounded=0;" vertex="1" parent="1">
          <mxGeometry x="150" y="140" width="60" height="30" as="geometry" />
        </mxCell>
        <mxCell id="hXrwtRvcpEDOgqO_QYrS-9" value="Download and Print Image-List" style="text;strokeColor=none;align=center;fillColor=none;html=1;verticalAlign=middle;whiteSpace=wrap;rounded=0;" vertex="1" parent="1">
          <mxGeometry x="221.93" y="160" width="183.07" height="30" as="geometry" />
        </mxCell>
        <mxCell id="hXrwtRvcpEDOgqO_QYrS-20" value="" style="sketch=0;outlineConnect=0;fontColor=#232F3E;gradientColor=none;fillColor=#232F3D;strokeColor=none;dashed=0;verticalLabelPosition=bottom;verticalAlign=top;align=center;html=1;fontSize=12;fontStyle=0;aspect=fixed;pointerEvents=1;shape=mxgraph.aws4.document;" vertex="1" parent="1">
          <mxGeometry x="290" y="190" width="27.77" height="38" as="geometry" />
        </mxCell>
      </root>
    </mxGraphModel>
  </diagram>
</mxfile>
